# xmcd CD database file
#
# Track frame offsets:
#	150
#	24426
#	45467
#	65244
#	85106
#	106690
#	130092
#	151654
#	175686
#	198464
#	224249
#	244264
#	262424
#	283024
#
# Disc length: 4150 seconds
#
# Revision: 0
# Processed by: cddbd v1.5.1PL2 Copyright (c) Steve Scherf et al.
# Submitted via: CDex 1.70beta1
#
DISCID=cb10340e
DTITLE=Clifton DeMarks - Mr. Cool
DYEAR=2004
DGENRE=Jazz
TTITLE0=Coupe de Villle
TTITLE1=Shuck and Jive
TTITLE2=Unconditional
TTITLE3=Nothing Will Come
TTITLE4=No Rhyme, No Reason
TTITLE5=In This Moment
TTITLE6=Mr. Cool
TTITLE7=Attitude
TTITLE8=Killing Me Softly
TTITLE9=When Love Calls
TTITLE10=Footsteps
TTITLE11=Make It With You
TTITLE12=Black Leather Jacket
TTITLE13=Anytime
EXTD=YEAR: 2004
EXTT0=
EXTT1=
EXTT2=
EXTT3=
EXTT4=
EXTT5=
EXTT6=
EXTT7=
EXTT8=
EXTT9=
EXTT10=
EXTT11=
EXTT12=
EXTT13=
PLAYORDER=
